<?xml version="1.0" encoding="UTF-8" standalone="no"?>
<svg
   xmlns:dc="http://purl.org/dc/elements/1.1/"
   xmlns:cc="http://creativecommons.org/ns#"
   xmlns:rdf="http://www.w3.org/1999/02/22-rdf-syntax-ns#"
   xmlns:svg="http://www.w3.org/2000/svg"
   xmlns="http://www.w3.org/2000/svg"
   xmlns:xlink="http://www.w3.org/1999/xlink"
   xmlns:sodipodi="http://sodipodi.sourceforge.net/DTD/sodipodi-0.dtd"
   xmlns:inkscape="http://www.inkscape.org/namespaces/inkscape"
   data-v-423bf9ae=""
   viewBox="0 0 310 75"
   class="iconLeftSlogan"
   version="1.1"
   id="svg18"
   sodipodi:docname="tunjaksolutions_logo.svg"
   inkscape:version="1.0.1 (3bc2e813f5, 2020-09-07)"
   width="310"
   height="75">
  <metadata
     id="metadata22">
    <rdf:RDF>
      <cc:Work
         rdf:about="">
        <dc:format>image/svg+xml</dc:format>
        <dc:type
           rdf:resource="http://purl.org/dc/dcmitype/StillImage" />
        <dc:title></dc:title>
      </cc:Work>
    </rdf:RDF>
  </metadata>
  <sodipodi:namedview
     pagecolor="#ffffff"
     bordercolor="#666666"
     borderopacity="1"
     objecttolerance="10"
     gridtolerance="10"
     guidetolerance="10"
     inkscape:pageopacity="0"
     inkscape:pageshadow="2"
     inkscape:window-width="1920"
     inkscape:window-height="1017"
     id="namedview20"
     showgrid="false"
     inkscape:zoom="1.8121739"
     inkscape:cx="287.5"
     inkscape:cy="22.927063"
     inkscape:window-x="-8"
     inkscape:window-y="-8"
     inkscape:window-maximized="1"
     inkscape:current-layer="svg18" />
  <!---->
  <!---->
  <!---->
  <g
     data-v-423bf9ae=""
     id="c5727d9b-21e2-40a1-b712-638931a28b66"
     fill="#000000"
     transform="matrix(2.0216399,0,0,1.8083181,83.31697,23.729384)"
     style="fill:#18253c;fill-opacity:1">
    <path
       d="m 4.72,11.48 v 0 q 0.19,0 0.31,0.12 v 0 0 q 0.12,0.12 0.12,0.31 v 0 0 q 0,0.19 -0.12,0.3 v 0 0 q -0.12,0.12 -0.31,0.12 v 0 H 4.4 v 0 q -0.77,0 -1.38,-0.35 v 0 0 Q 2.42,11.63 2.09,11.03 v 0 0 Q 1.75,10.42 1.75,9.65 v 0 -3.94 H 0.66 v 0 q -0.17,0 -0.27,-0.1 v 0 0 Q 0.28,5.5 0.28,5.33 v 0 0 q 0,-0.16 0.11,-0.27 v 0 0 q 0.1,-0.1 0.27,-0.1 v 0 h 1.09 v -2.29 0 q 0,-0.19 0.12,-0.31 v 0 0 Q 1.99,2.24 2.17,2.24 v 0 0 q 0.2,0 0.31,0.12 v 0 0 Q 2.6,2.48 2.6,2.67 v 0 2.29 h 1.85 v 0 q 0.17,0 0.28,0.1 v 0 0 q 0.1,0.11 0.1,0.27 v 0 0 q 0,0.17 -0.1,0.28 v 0 0 q -0.11,0.1 -0.28,0.1 v 0 H 2.6 v 3.94 0 q 0,0.81 0.51,1.32 v 0 0 q 0.5,0.51 1.3,0.51 v 0 z m 8.66,-6.8 v 0 q 0.2,0 0.31,0.11 v 0 0 Q 13.8,4.9 13.8,5.1 v 0 6.81 0 q 0,0.19 -0.11,0.3 v 0 0 q -0.11,0.12 -0.31,0.12 v 0 0 q -0.18,0 -0.3,-0.12 v 0 0 q -0.12,-0.11 -0.12,-0.3 v 0 -0.72 0 q -0.47,0.58 -1.16,0.91 v 0 0 q -0.68,0.33 -1.5,0.33 v 0 0 q -1.02,0 -1.82,-0.42 v 0 0 Q 7.67,11.59 7.22,10.79 v 0 0 Q 6.76,9.98 6.76,8.86 v 0 -3.76 0 q 0,-0.19 0.12,-0.31 v 0 0 Q 7,4.68 7.18,4.68 v 0 0 q 0.18,0 0.3,0.11 v 0 0 Q 7.6,4.91 7.6,5.1 v 0 3.76 0 q 0,1.33 0.75,2.03 v 0 0 q 0.75,0.7 1.95,0.7 v 0 0 q 0.75,0 1.36,-0.29 v 0 0 q 0.6,-0.28 0.95,-0.79 v 0 0 Q 12.96,10 12.96,9.38 v 0 -4.28 0 q 0,-0.2 0.12,-0.31 v 0 0 q 0.12,-0.11 0.3,-0.11 z m 6.44,-0.1 v 0 q 1.03,0 1.83,0.42 v 0 0 q 0.81,0.42 1.26,1.22 v 0 0 q 0.46,0.81 0.46,1.93 v 0 3.76 0 q 0,0.19 -0.12,0.3 v 0 0 q -0.12,0.12 -0.3,0.12 v 0 0 q -0.19,0 -0.31,-0.12 v 0 0 q -0.11,-0.11 -0.11,-0.3 v 0 -3.76 0 q 0,-1.33 -0.75,-2.03 v 0 0 q -0.75,-0.7 -1.96,-0.7 v 0 0 q -0.74,0 -1.35,0.28 v 0 0 q -0.61,0.29 -0.96,0.8 v 0 0 q -0.35,0.51 -0.35,1.13 v 0 4.28 0 q 0,0.19 -0.11,0.3 v 0 0 q -0.11,0.12 -0.31,0.12 v 0 0 q -0.18,0 -0.3,-0.12 v 0 0 q -0.12,-0.11 -0.12,-0.3 v 0 -6.81 0 q 0,-0.2 0.12,-0.31 v 0 0 q 0.12,-0.11 0.3,-0.11 v 0 0 q 0.2,0 0.31,0.11 v 0 0 q 0.11,0.11 0.11,0.31 v 0 0.72 0 q 0.48,-0.58 1.17,-0.91 v 0 0 q 0.68,-0.33 1.49,-0.33 z m 7.1,7.77 v 0 q 0,0.94 -0.42,1.68 v 0 0 q -0.42,0.74 -1.16,1.16 v 0 0 q -0.74,0.42 -1.68,0.42 v 0 0 q -0.2,0 -0.32,-0.12 v 0 0 q -0.11,-0.12 -0.11,-0.3 v 0 0 q 0,-0.18 0.11,-0.31 v 0 0 q 0.12,-0.12 0.32,-0.12 v 0 0 q 1.06,0 1.74,-0.68 v 0 0 q 0.67,-0.67 0.67,-1.73 v 0 -7.25 0 q 0,-0.2 0.12,-0.31 v 0 0 q 0.12,-0.11 0.3,-0.11 v 0 0 q 0.19,0 0.31,0.11 v 0 0 q 0.12,0.12 0.12,0.31 v 0 z M 26.49,1.76 v 0 q 0.26,0 0.45,0.17 v 0 0 q 0.19,0.17 0.19,0.48 v 0 0 q 0,0.28 -0.19,0.47 v 0 0 q -0.19,0.19 -0.47,0.19 v 0 0 q -0.28,0 -0.46,-0.19 v 0 0 Q 25.83,2.69 25.83,2.41 v 0 0 q 0,-0.31 0.2,-0.48 v 0 0 q 0.19,-0.17 0.46,-0.17 z m 6.73,2.83 v 0 q 1.09,0 1.99,0.51 v 0 0 q 0.9,0.51 1.41,1.41 v 0 0 q 0.51,0.9 0.51,2 v 0 3.4 0 q 0,0.19 -0.11,0.3 v 0 0 q -0.12,0.12 -0.31,0.12 v 0 0 q -0.18,0 -0.3,-0.12 v 0 0 q -0.12,-0.11 -0.12,-0.3 v 0 -1.09 0 q -0.46,0.74 -1.27,1.17 v 0 0 q -0.8,0.43 -1.8,0.43 v 0 0 q -1.1,0 -2,-0.51 v 0 0 Q 30.32,11.4 29.81,10.5 v 0 0 Q 29.3,9.6 29.3,8.51 v 0 0 q 0,-1.1 0.51,-2 v 0 0 q 0.51,-0.9 1.41,-1.41 v 0 0 q 0.9,-0.51 2,-0.51 z m 0,7.04 v 0 q 0.87,0 1.57,-0.4 v 0 0 q 0.7,-0.41 1.1,-1.12 v 0 0 q 0.4,-0.72 0.4,-1.6 v 0 0 q 0,-0.88 -0.4,-1.59 v 0 0 Q 35.49,6.2 34.79,5.79 v 0 0 Q 34.09,5.38 33.22,5.38 v 0 0 q -0.87,0 -1.57,0.41 v 0 0 q -0.7,0.41 -1.1,1.13 v 0 0 q -0.41,0.71 -0.41,1.59 v 0 0 q 0,0.88 0.41,1.6 v 0 0 q 0.4,0.71 1.1,1.12 v 0 0 q 0.7,0.4 1.57,0.4 z m 11.79,0.09 v 0 q 0.1,0.11 0.1,0.25 v 0 0 q 0,0.15 -0.16,0.29 v 0 0 q -0.14,0.12 -0.25,0.12 v 0 0 q -0.17,0 -0.29,-0.17 v 0 L 41.37,8.5 40.07,9.69 v 2.22 0 q 0,0.19 -0.11,0.3 v 0 0 q -0.12,0.12 -0.31,0.12 v 0 0 q -0.18,0 -0.3,-0.12 v 0 0 q -0.12,-0.11 -0.12,-0.3 v 0 -10.09 0 q 0,-0.2 0.12,-0.31 v 0 0 Q 39.47,1.4 39.65,1.4 v 0 0 q 0.19,0 0.31,0.11 v 0 0 q 0.11,0.11 0.11,0.31 v 0 6.85 l 4.34,-3.95 v 0 q 0.14,-0.11 0.26,-0.11 v 0 0 q 0.14,0 0.27,0.14 v 0 0 q 0.13,0.12 0.13,0.26 v 0 0 q 0,0.14 -0.14,0.27 v 0 l -2.97,2.7 z m 4.87,-7.13 v 0 q 1.77,0 2.68,1.26 v 0 0 q 0.08,0.1 0.08,0.24 v 0 0 q 0,0.2 -0.22,0.32 v 0 0 q -0.14,0.06 -0.21,0.06 v 0 0 Q 52,6.47 51.86,6.29 v 0 0 Q 51.14,5.38 49.85,5.38 v 0 0 Q 49,5.38 48.5,5.75 v 0 0 q -0.51,0.37 -0.51,0.91 v 0 0 q 0,0.56 0.49,0.9 v 0 0 q 0.48,0.34 1.61,0.5 v 0 0 q 1.49,0.21 2.14,0.8 v 0 0 q 0.65,0.58 0.65,1.4 v 0 0 q 0,0.65 -0.41,1.14 v 0 0 q -0.42,0.49 -1.1,0.75 v 0 0 q -0.69,0.27 -1.5,0.27 v 0 0 q -0.81,0 -1.58,-0.29 v 0 0 q -0.77,-0.29 -1.28,-0.87 v 0 0 Q 46.91,11.14 46.91,11 v 0 0 q 0,-0.19 0.19,-0.32 v 0 0 q 0.08,-0.07 0.23,-0.07 v 0 0 q 0.2,0 0.33,0.16 v 0 0 q 0.7,0.85 2.25,0.85 v 0 0 q 1.11,0 1.63,-0.39 v 0 0 q 0.53,-0.39 0.53,-1.01 v 0 0 q 0,-1.11 -2.15,-1.41 v 0 0 Q 48.57,8.61 47.87,8.06 v 0 0 Q 47.18,7.52 47.18,6.75 v 0 0 q 0,-1.02 0.75,-1.59 v 0 0 q 0.75,-0.57 1.95,-0.57 z m 8.39,0 v 0 q 1.09,0 1.99,0.51 v 0 0 q 0.89,0.51 1.4,1.41 v 0 0 q 0.51,0.9 0.51,2 v 0 0 q 0,1.09 -0.51,1.99 v 0 0 q -0.51,0.9 -1.4,1.41 v 0 0 q -0.9,0.51 -1.99,0.51 v 0 0 q -1.11,0 -2,-0.51 v 0 0 Q 55.37,11.4 54.86,10.5 v 0 0 Q 54.35,9.6 54.35,8.51 v 0 0 q 0,-1.1 0.51,-2 v 0 0 q 0.51,-0.9 1.41,-1.41 v 0 0 q 0.89,-0.51 2,-0.51 z m 0,0.79 v 0 q -0.87,0 -1.57,0.41 v 0 0 Q 56,6.2 55.59,6.92 v 0 0 q -0.4,0.71 -0.4,1.59 v 0 0 q 0,0.88 0.4,1.6 v 0 0 q 0.41,0.71 1.11,1.12 v 0 0 q 0.7,0.4 1.57,0.4 v 0 0 q 0.87,0 1.57,-0.4 v 0 0 q 0.7,-0.41 1.1,-1.12 v 0 0 q 0.39,-0.72 0.39,-1.6 v 0 0 q 0,-0.88 -0.39,-1.59 v 0 0 Q 60.54,6.2 59.84,5.79 v 0 0 Q 59.14,5.38 58.27,5.38 Z m 5.72,-3.56 v 0 q 0,-0.2 0.12,-0.31 v 0 0 Q 64.23,1.4 64.41,1.4 v 0 0 q 0.2,0 0.31,0.11 v 0 0 q 0.11,0.11 0.11,0.31 v 0 8.2 0 q 0,0.65 0.28,1.06 v 0 0 q 0.27,0.41 0.7,0.41 v 0 h 0.35 v 0 q 0.16,0 0.26,0.12 v 0 0 q 0.09,0.11 0.09,0.3 v 0 0 q 0,0.19 -0.11,0.3 v 0 0 q -0.11,0.12 -0.31,0.12 v 0 h -0.28 v 0 q -0.79,0 -1.3,-0.64 v 0 0 q -0.52,-0.64 -0.52,-1.67 v 0 z m 10.55,2.86 v 0 q 0.19,0 0.3,0.11 v 0 0 q 0.12,0.11 0.12,0.31 v 0 6.81 0 q 0,0.19 -0.12,0.3 v 0 0 q -0.11,0.12 -0.3,0.12 v 0 0 q -0.19,0 -0.31,-0.12 v 0 0 q -0.11,-0.11 -0.11,-0.3 v 0 -0.72 0 q -0.48,0.58 -1.17,0.91 v 0 0 q -0.68,0.33 -1.49,0.33 v 0 0 q -1.03,0 -1.83,-0.42 v 0 0 q -0.81,-0.42 -1.26,-1.22 v 0 0 Q 67.91,9.98 67.91,8.86 v 0 -3.76 0 q 0,-0.19 0.12,-0.31 v 0 0 q 0.12,-0.11 0.3,-0.11 v 0 0 q 0.19,0 0.3,0.11 v 0 0 q 0.12,0.12 0.12,0.31 v 0 3.76 0 q 0,1.33 0.75,2.03 v 0 0 q 0.75,0.7 1.96,0.7 v 0 0 q 0.74,0 1.35,-0.29 v 0 0 q 0.61,-0.28 0.96,-0.79 v 0 0 Q 74.12,10 74.12,9.38 v 0 -4.28 0 q 0,-0.2 0.11,-0.31 v 0 0 q 0.12,-0.11 0.31,-0.11 z m 6.39,6.8 v 0 q 0.2,0 0.32,0.12 v 0 0 q 0.12,0.12 0.12,0.31 v 0 0 q 0,0.19 -0.12,0.3 v 0 0 q -0.12,0.12 -0.32,0.12 v 0 h -0.32 v 0 q -0.77,0 -1.37,-0.35 v 0 0 q -0.6,-0.35 -0.94,-0.95 v 0 0 Q 77.97,10.42 77.97,9.65 v 0 -3.94 h -1.1 v 0 q -0.16,0 -0.27,-0.1 v 0 0 Q 76.5,5.5 76.5,5.33 v 0 0 q 0,-0.16 0.1,-0.27 v 0 0 q 0.11,-0.1 0.27,-0.1 v 0 h 1.1 v -2.29 0 q 0,-0.19 0.11,-0.31 v 0 0 Q 78.2,2.24 78.39,2.24 v 0 0 q 0.19,0 0.31,0.12 v 0 0 q 0.12,0.12 0.12,0.31 v 0 2.29 h 1.85 v 0 q 0.17,0 0.27,0.1 v 0 0 q 0.11,0.11 0.11,0.27 v 0 0 q 0,0.17 -0.11,0.28 v 0 0 q -0.1,0.1 -0.27,0.1 v 0 h -1.85 v 3.94 0 q 0,0.81 0.5,1.32 v 0 0 q 0.51,0.51 1.31,0.51 v 0 z M 83.4,5.1 v 0 q 0,-0.2 0.12,-0.31 v 0 0 q 0.12,-0.11 0.3,-0.11 v 0 0 q 0.19,0 0.31,0.11 v 0 0 q 0.11,0.11 0.11,0.31 v 0 6.81 0 q 0,0.19 -0.11,0.3 v 0 0 q -0.12,0.12 -0.31,0.12 v 0 0 q -0.18,0 -0.3,-0.12 v 0 0 Q 83.4,12.1 83.4,11.91 v 0 z m 0.42,-3.34 v 0 q 0.26,0 0.45,0.17 v 0 0 q 0.19,0.17 0.19,0.48 v 0 0 q 0,0.28 -0.19,0.47 v 0 0 Q 84.08,3.07 83.8,3.07 v 0 0 q -0.28,0 -0.46,-0.19 v 0 0 Q 83.16,2.69 83.16,2.41 v 0 0 q 0,-0.31 0.2,-0.48 v 0 0 q 0.19,-0.17 0.46,-0.17 z m 6.72,2.83 v 0 q 1.09,0 1.99,0.51 v 0 0 q 0.89,0.51 1.4,1.41 v 0 0 q 0.51,0.9 0.51,2 v 0 0 q 0,1.09 -0.51,1.99 v 0 0 q -0.51,0.9 -1.4,1.41 v 0 0 q -0.9,0.51 -1.99,0.51 v 0 0 q -1.11,0 -2,-0.51 v 0 0 Q 87.64,11.4 87.13,10.5 v 0 0 Q 86.62,9.6 86.62,8.51 v 0 0 q 0,-1.1 0.51,-2 v 0 0 q 0.51,-0.9 1.41,-1.41 v 0 0 q 0.89,-0.51 2,-0.51 z m 0,0.79 v 0 q -0.87,0 -1.57,0.41 v 0 0 q -0.7,0.41 -1.11,1.13 v 0 0 q -0.4,0.71 -0.4,1.59 v 0 0 q 0,0.88 0.4,1.6 v 0 0 q 0.41,0.71 1.11,1.12 v 0 0 q 0.7,0.4 1.57,0.4 v 0 0 q 0.87,0 1.57,-0.4 v 0 0 q 0.7,-0.41 1.09,-1.12 v 0 0 q 0.4,-0.72 0.4,-1.6 v 0 0 q 0,-0.88 -0.4,-1.59 v 0 0 Q 92.81,6.2 92.11,5.79 v 0 0 Q 91.41,5.38 90.54,5.38 Z m 9.5,-0.8 v 0 q 1.03,0 1.83,0.42 v 0 0 q 0.81,0.42 1.26,1.22 v 0 0 q 0.46,0.81 0.46,1.93 v 0 3.76 0 q 0,0.19 -0.12,0.3 v 0 0 q -0.12,0.12 -0.3,0.12 v 0 0 q -0.19,0 -0.31,-0.12 v 0 0 q -0.11,-0.11 -0.11,-0.3 v 0 -3.76 0 q 0,-1.33 -0.75,-2.03 v 0 0 q -0.75,-0.7 -1.96,-0.7 v 0 0 q -0.74,0 -1.35,0.28 v 0 0 q -0.61,0.29 -0.96,0.8 v 0 0 q -0.35,0.51 -0.35,1.13 v 0 4.28 0 q 0,0.19 -0.11,0.3 v 0 0 q -0.11,0.12 -0.31,0.12 v 0 0 q -0.18,0 -0.3,-0.12 v 0 0 q -0.12,-0.11 -0.12,-0.3 v 0 -6.81 0 q 0,-0.2 0.12,-0.31 v 0 0 q 0.12,-0.11 0.3,-0.11 v 0 0 q 0.2,0 0.31,0.11 v 0 0 q 0.11,0.11 0.11,0.31 v 0 0.72 0 q 0.48,-0.58 1.17,-0.91 v 0 0 q 0.68,-0.33 1.49,-0.33 z m 8.54,0.01 v 0 q 1.77,0 2.68,1.26 v 0 0 q 0.08,0.1 0.08,0.24 v 0 0 q 0,0.2 -0.22,0.32 v 0 0 q -0.14,0.06 -0.21,0.06 v 0 0 q -0.21,0 -0.35,-0.18 v 0 0 q -0.72,-0.91 -2,-0.91 v 0 0 q -0.86,0 -1.36,0.37 v 0 0 q -0.51,0.37 -0.51,0.91 v 0 0 q 0,0.56 0.49,0.9 v 0 0 q 0.48,0.34 1.61,0.5 v 0 0 q 1.49,0.21 2.14,0.8 v 0 0 q 0.65,0.58 0.65,1.4 v 0 0 q 0,0.65 -0.41,1.14 v 0 0 q -0.42,0.49 -1.1,0.75 v 0 0 q -0.69,0.27 -1.5,0.27 v 0 0 q -0.81,0 -1.58,-0.29 v 0 0 q -0.77,-0.29 -1.28,-0.87 v 0 0 Q 105.62,11.14 105.62,11 v 0 0 q 0,-0.19 0.18,-0.32 v 0 0 q 0.08,-0.07 0.24,-0.07 v 0 0 q 0.19,0 0.32,0.16 v 0 0 q 0.7,0.85 2.25,0.85 v 0 0 q 1.11,0 1.63,-0.39 v 0 0 q 0.53,-0.39 0.53,-1.01 v 0 0 q 0,-1.11 -2.14,-1.41 v 0 0 q -1.36,-0.2 -2.06,-0.75 v 0 0 q -0.69,-0.54 -0.69,-1.31 v 0 0 q 0,-1.02 0.75,-1.59 v 0 0 q 0.75,-0.57 1.95,-0.57 z"
       id="path2"
       style="fill:#18253c;fill-opacity:1" />
  </g>
  <defs
     data-v-423bf9ae=""
     id="defs10">
    <linearGradient
       data-v-423bf9ae=""
       gradientTransform="rotate(25)"
       id="56b02d18-d3f9-4966-abc1-ee46c466d1f9"
       x1="0"
       y1="0"
       x2="1"
       y2="0">
      <stop
         data-v-423bf9ae=""
         offset="0%"
         style="stop-color: rgb(33, 105, 15); stop-opacity: 1;"
         id="stop5" />
      <stop
         data-v-423bf9ae=""
         offset="100%"
         style="stop-color: rgb(136, 200, 72); stop-opacity: 1;"
         id="stop7" />
    </linearGradient>
    <linearGradient
       inkscape:collect="always"
       xlink:href="#56b02d18-d3f9-4966-abc1-ee46c466d1f9"
       id="linearGradient847"
       gradientTransform="scale(0.97100134,1.0298647)"
       x1="10.254363"
       y1="8.3855677"
       x2="92.17289"
       y2="8.3855677"
       gradientUnits="userSpaceOnUse" />
    <linearGradient
       inkscape:collect="always"
       xlink:href="#56b02d18-d3f9-4966-abc1-ee46c466d1f9"
       id="linearGradient849"
       gradientTransform="scale(0.97100134,1.0298647)"
       x1="10.254363"
       y1="8.3855677"
       x2="92.17289"
       y2="8.3855677"
       gradientUnits="userSpaceOnUse" />
  </defs>
  <g
     data-v-423bf9ae=""
     id="37968843-4401-4fe3-bc6a-04a98b872a39"
     transform="matrix(0.94288624,0,0,0.88899425,-8.8601273,-7.0413995)"
     stroke="none"
     fill="url(#56b02d18-d3f9-4966-abc1-ee46c466d1f9)"
     style="fill:url(#linearGradient849)">
    <path
       d="m 13.572,36.355 a 3.616,3.616 0 0 0 -3.615,3.616 v 21.694 a 3.614,3.614 0 0 0 3.615,3.615 3.615,3.615 0 0 0 3.616,-3.615 V 39.971 A 3.617,3.617 0 0 0 13.572,36.355 Z M 25.625,20.688 a 3.615,3.615 0 0 0 -3.615,3.616 v 53.029 a 3.614,3.614 0 0 0 3.615,3.615 3.615,3.615 0 0 0 3.616,-3.615 V 24.304 A 3.617,3.617 0 0 0 25.625,20.688 Z M 37.677,8.636 a 3.616,3.616 0 0 0 -3.616,3.616 v 77.133 a 3.616,3.616 0 0 0 7.232,0 V 12.252 A 3.617,3.617 0 0 0 37.677,8.636 Z m 12.052,21.092 a 3.616,3.616 0 0 0 -3.616,3.615 v 34.951 a 3.6155,3.6155 0 0 0 7.231,0 V 33.343 A 3.616,3.616 0 0 0 49.729,29.728 Z M 61.78,8.636 a 3.616,3.616 0 0 0 -3.615,3.616 v 77.133 a 3.615,3.615 0 0 0 7.23,0 V 12.252 A 3.615,3.615 0 0 0 61.78,8.636 Z m 12.053,18.078 a 3.616,3.616 0 0 0 -3.615,3.616 v 40.976 a 3.616,3.616 0 1 0 7.23,0 V 30.33 a 3.617,3.617 0 0 0 -3.615,-3.616 z m 12.052,10.244 a 3.617,3.617 0 0 0 -3.616,3.616 V 61.063 A 3.616,3.616 0 0 0 89.5,61.062 V 40.574 a 3.617,3.617 0 0 0 -3.615,-3.616 z"
       id="path12"
       style="fill:url(#linearGradient847)" />
  </g>
  <!---->
  <text
     xml:space="preserve"
     style="font-size:20px;line-height:1.25;font-family:sans-serif;white-space:pre;inline-size:132.003"
     x="112.57198"
     y="64.563339"
     id="text857" />
</svg>
